<svg width="32" height="32" viewBox="0 0 32 32" fill="none" xmlns="http://www.w3.org/2000/svg">
<path d="M14.26 11.9162V13.7522H12.916V15.9962H14.26V22.6668H17.0227V15.9962H18.876C18.876 15.9962 19.0507 14.9202 19.1347 13.7428H17.0333V12.2095C17.0333 11.9788 17.3347 11.6708 17.6333 11.6708H19.1373V9.3335H17.0907C14.192 9.3335 14.26 11.5802 14.26 11.9162Z" fill="#F1E7D0"/>
<path d="M8.00002 5.33341C7.29278 5.33341 6.6145 5.61437 6.1144 6.11446C5.61431 6.61456 5.33335 7.29284 5.33335 8.00008V24.0001C5.33335 24.7073 5.61431 25.3856 6.1144 25.8857C6.6145 26.3858 7.29278 26.6667 8.00002 26.6667H24C24.7073 26.6667 25.3855 26.3858 25.8856 25.8857C26.3857 25.3856 26.6667 24.7073 26.6667 24.0001V8.00008C26.6667 7.29284 26.3857 6.61456 25.8856 6.11446C25.3855 5.61437 24.7073 5.33341 24 5.33341H8.00002ZM8.00002 2.66675H24C25.4145 2.66675 26.7711 3.22865 27.7713 4.22885C28.7715 5.22904 29.3334 6.58559 29.3334 8.00008V24.0001C29.3334 25.4146 28.7715 26.7711 27.7713 27.7713C26.7711 28.7715 25.4145 29.3334 24 29.3334H8.00002C6.58553 29.3334 5.22898 28.7715 4.22878 27.7713C3.22859 26.7711 2.66669 25.4146 2.66669 24.0001V8.00008C2.66669 6.58559 3.22859 5.22904 4.22878 4.22885C5.22898 3.22865 6.58553 2.66675 8.00002 2.66675Z" fill="#F1E7D0"/>
</svg>
